<svg xmlns="http://www.w3.org/2000/svg" viewBox="0 0 256 256" role="img" aria-label="Needt">
  <defs>
    <radialGradient id="halo" cx="46%" cy="34%" r="68%">
      <stop offset="0%" stop-color="#f4f5fb" stop-opacity=".9"/>
      <stop offset="28%" stop-color="#2dd4bf" stop-opacity=".72"/>
      <stop offset="58%" stop-color="#4a7bff" stop-opacity=".68"/>
      <stop offset="82%" stop-color="#8b5cf6" stop-opacity=".62"/>
      <stop offset="100%" stop-color="#e64bd0" stop-opacity=".42"/>
    </radialGradient>
    <linearGradient id="shard" x1="76" y1="46" x2="190" y2="212" gradientUnits="userSpaceOnUse">
      <stop stop-color="#f4f5fb" stop-opacity=".9"/>
      <stop offset=".33" stop-color="#4a7bff"/>
      <stop offset=".7" stop-color="#8b5cf6"/>
      <stop offset="1" stop-color="#e64bd0"/>
    </linearGradient>
    <filter id="glow" x="-50%" y="-50%" width="200%" height="200%">
      <feGaussianBlur stdDeviation="10" result="blur"/>
      <feMerge>
        <feMergeNode in="blur"/>
        <feMergeNode in="SourceGraphic"/>
      </feMerge>
    </filter>
  </defs>
  <rect width="256" height="256" rx="58" fill="#07070d"/>
  <circle cx="128" cy="116" r="96" fill="url(#halo)" opacity=".72" filter="url(#glow)"/>
  <path d="M84 178 108 62c2-10 16-13 23-5l65 75c8 9 2 24-10 26l-43 8-32 33c-10 10-30-7-27-21Z" fill="url(#shard)" opacity=".94"/>
  <path d="M108 65 145 166 84 178Z" fill="#fff" opacity=".14"/>
  <path d="M128 54 196 132 145 166Z" fill="#fff" opacity=".12"/>
  <path d="M86 178 145 166 113 199Z" fill="#fff" opacity=".1"/>
  <path d="M95 176 115 78c1-5 8-7 12-3l54 62" fill="none" stroke="#fff" stroke-opacity=".38" stroke-width="6" stroke-linecap="round"/>
</svg>
